# xmcd
#
# Track frame offsets:
#	150
#	14737
#	26435
#	38202
#	52672
#	64727
#	80277
#	92662
#	105917
#	119937
#	132580
#	145462
#	156162
#	168232
#	181140
#	192682
#	205150
#	216412
#	231865
#	248980
#	264490
#	278922
#
# Disc length: 3906 seconds
# Revision: 3
# Processed by: cddbd v1.5.2PL0 Copyright (c) Steve Scherf et al.
# Submitted via: dBpowerAMP V12.0
#
DISCID=440f4016
DTITLE=John Lee Hooker - Vol.6: Detroit 1953-1954
DYEAR=2005
DGENRE=Blues
TTITLE0=Baby You Ain't No Good
TTITLE1=Baby I'm Gonna Miss You
TTITLE2=Shake Holler and Run
TTITLE3=Taxi Driver
TTITLE4=I'm Ready
TTITLE5=I Need Love So Bad
TTITLE6=Hug and Squeeze
TTITLE7=I Love You Baby
TTITLE8=The Syndicator (The Syndicate)
TTITLE9=I'm Mad
TTITLE10=Everybody's Blues
TTITLE11=Anybody's Blues (I Love You Baby)
TTITLE12=Boogie Rambler
TTITLE13=Locked up in Jail (Prison Blues)
TTITLE14=I Keep the Blues
TTITLE15=I Been Done So Wrong
TTITLE16=No More Doggin' (No More Foolin')
TTITLE17=I Do Like I Please
TTITLE18=Don't Trust Nobody
TTITLE19=Nothin' But Trouble
TTITLE20=I Need Love So Bad
TTITLE21=Odds Against Me (Backbiters and Syndicators)
EXTD=
EXTT0=
EXTT1=
EXTT2=
EXTT3=
EXTT4=
EXTT5=
EXTT6=
EXTT7=
EXTT8=
EXTT9=
EXTT10=
EXTT11=
EXTT12=
EXTT13=
EXTT14=
EXTT15=
EXTT16=
EXTT17=
EXTT18=
EXTT19=
EXTT20=
EXTT21=
PLAYORDER=
